<svg xmlns="http://www.w3.org/2000/svg" width="56" height="60" viewBox="0 0 56 60" version="1.1">
	<path d="M25.8 0L30.2 0C34.8 2.1 37 7 38.7 11.4 44.6 10.6 53 9.6 56 16.2L56 19.5C54.9 23.5 52.6 26.9 50 30 52.6 33 54.7 36.4 56 40.2L56 38.7 56 43.5C53.4 50.5 44.6 49.4 38.7 48.6 37 53 34.8 57.9 30.1 60L25.9 60C21.2 57.9 19 53 17.3 48.6 11.4 49.4 3 50.5 0 43.8L0 40.5C1.1 36.5 3.4 33.1 6 30 3.5 27 1.3 23.6 0 19.9L0 21.2 0 16.5C2.6 9.5 11.4 10.6 17.3 11.4 19 7 21.2 2.1 25.8 0M19.7 12C22.5 12.9 25.3 13.9 28 15 30.8 13.9 33.5 12.9 36.3 12 34.5 8.2 32.8 2.7 28 2.2 23.2 2.8 21.5 8.2 19.7 12M3.1 15.8C1 20.5 5.2 24.8 7.9 28.2 10.2 26 13 24.4 15 22 15.7 19.3 15.9 16.6 16.6 14 12.2 13.1 6.5 12.2 3.1 15.8M39.4 14C40.1 16.7 40.4 19.4 41 22 43.1 24.4 45.8 26 48.1 28.2 50.8 24.8 55 20.4 52.9 15.8 49.5 12.2 43.8 13 39.4 14M19 14.4C18.6 16.4 18.1 18.4 17.9 20.5 20.2 19 22.6 17.7 25.1 16.4 23.1 15.7 21.1 15.1 19 14.4M31 16.5C33.4 17.7 35.8 19 38.1 20.5 37.9 18.4 37.5 16.4 37 14.4 35 15.1 33 15.7 31 16.5M17.2 24C17.1 28 17.1 32 17.2 36 20.6 38.3 24.1 40.7 28 42.1 31.9 40.7 35.4 38.3 38.8 36 38.9 32 38.9 28 38.8 24 35.4 21.6 31.8 19.5 28 17.7 24.2 19.5 20.6 21.6 17.2 24M9.8 30C11.5 31.5 13.1 33 14.8 34.3 14.9 31.5 14.9 28.6 14.8 25.7 13.1 27.1 11.5 28.5 9.8 30M41.2 25.7C41.2 28.5 41.2 31.4 41.2 34.3 42.9 33 44.6 31.5 46.2 30 44.6 28.5 42.9 27.1 41.2 25.7M2.9 43.8C6.1 47.9 12.1 46.8 16.5 46.1 15.9 43.4 15.7 40.7 15 38 12.9 35.6 10.2 33.9 7.9 31.8 5.3 35.2 1.3 39.2 2.9 43.8M41 38C40.4 40.6 40.1 43.3 39.5 46 43.8 47 49.8 47.9 53 43.9 54.8 39.3 50.8 35.2 48.1 31.8 45.8 34 43.1 35.6 41 38M19 45.6C21 45 23 44.3 25 43.6 22.6 42.3 20.2 41 17.9 39.5 18.2 41.6 18.6 43.6 19 45.6M31 43.6C33 44.3 35 45 37 45.6 37.4 43.6 37.9 41.6 38.2 39.5 35.8 41 33.4 42.3 31 43.6M19.7 48C21.5 52 23.6 58.1 28.9 57.8 33 56.3 34.7 51.7 36.3 48 33.5 47.1 30.8 46.1 28 45 25.3 46.1 22.5 47.1 19.7 48ZM25.2 25.9C28.2 23.6 33.3 26.1 32.9 30 33.2 33.1 30 35.6 27 34.9 22.8 34.4 21.6 28.1 25.2 25.9M25 30.1C25.9 31 26.8 32.2 28.1 32.7 29.3 32.1 30.1 31 31 30 30.3 29.1 29.4 28.2 28.4 27.5 26.8 27.2 26 29.2 25 30.1Z"/>
</svg>