<svg xmlns="http://www.w3.org/2000/svg" width="60" height="60" viewBox="0 0 60 60" version="1.1">
	<path d="M12.3 0L14.1 0C19.2 4.7 24 9.9 28.5 15.3 27.9 15.2 26.8 15 26.2 14.9 21.3 11.1 18 5.5 13.1 1.9 9.2 4.8 6.1 8.5 2.7 11.9 0.8 13.3 3.3 16 5 16 7.6 14 9.5 11.3 12.1 9.3L13.3 9.9C11.6 13 8.5 15 6.2 17.7 7.6 19.1 9 20.5 10.4 21.9 11.9 20.5 13.2 18.7 15.4 18.7 14.6 20.5 13.3 21.9 11.9 23.1 13.3 24.7 14.9 26.2 15.4 28.4 12.8 27.6 11.2 25.4 9.3 23.6 6.3 20.4 2.5 17.7 0 13.9L0 12.2C3.8 7.8 7.8 3.6 12.3 0ZM46.5 0L48.5 0C52.5 3.6 56.3 7.5 60 11.4L60 15.2 60 14.2C46.8 27.4 34 41 20.5 53.8 13.9 56.5 6.9 58.4 0 60 0.7 55.5 2.6 51.3 3.9 47 4.9 43.9 5.5 40.3 8.2 38.1 21 25.5 33.5 12.4 46.5 0M41 8.9C44.5 12.6 48.2 16.2 51.9 19.7 53.8 17.6 56 15.7 57.9 13.6 58.8 12 56.8 11 56 10 53 7.3 50.6 3.9 47.1 1.7 45.3 4.2 41.7 5.9 41 8.9M8.9 40C9.9 40.4 10.9 40.8 11.9 41.1 21.4 31.2 31.2 21.6 41 11.9 40.4 11.3 39.7 10.6 39.1 9.9 29.1 20 19.1 30.2 8.9 40M13 42.7C13 44.1 13 45.5 13 46.9 14.4 47 15.8 47 17.2 47 27 37.2 37.1 27.6 46.7 17.6 45.3 16.2 43.9 14.8 42.5 13.4 32.5 23 22.9 33 13 42.7M48.3 19.1C38.4 28.7 28.7 38.5 18.9 48.1 19.2 49.3 19.5 50.5 19.9 51.8 24.2 47.7 28.4 43.6 32.3 39.3 38.1 33.3 44.2 27.6 49.9 21.5 50.3 20.4 48.8 19.9 48.3 19.1M7.5 41.9C5.9 47 4.1 52.2 2.6 57.4 7.8 56.2 12.9 54.4 18.1 53 18 51.5 17.5 50 16.9 48.7 15 48.7 13.2 48.6 11.3 48.5 11.3 46.9 11.4 45.2 11.3 43.6 10.8 42 8.8 42.4 7.5 41.9ZM44.8 31.9C48.6 34.1 51.2 37.7 54.4 40.6 56.3 42.7 58.7 44.4 59.9 47 59.3 49.4 57.2 51 55.6 52.7 53 55.1 50.9 58.1 47.7 60L45.8 60C40.8 55.5 35.8 50.7 31.8 45.2 33.9 44.8 35 46.9 36.6 47.9 38.3 47 39.6 45.4 41.3 44.6 41.3 46.8 39.5 48.1 38.1 49.4 39.4 50.9 40.9 52.4 42.3 53.9 45.1 51.5 47.1 47.8 50.9 46.7 49.7 50.2 46.2 52 44.1 54.9 43.7 56.5 45.7 57.5 46.9 58.1 51.1 55 54.5 50.9 58.2 47.1 54.3 43.2 50.4 39.4 46.5 35.5 45.5 34.5 44.9 33.3 44.8 31.9Z"/>
</svg>