<svg xmlns="http://www.w3.org/2000/svg" width="79" height="60" viewBox="0 0 79 60" version="1.1">
	<path d="M31.7 0L34.7 0C34 1.4 33.1 1.7 31.9 0.8L31.7 0ZM43.1 0L45.8 0 46.3 0.7C45 1.6 43.9 1.4 43.1 0ZM15.1 17.1C15.2 16.5 15.5 15.3 15.7 14.7 15.5 15.3 15.2 16.5 15.1 17.1ZM7.6 26.7C9.9 25.3 12.4 24.4 14.9 23.6L14.8 24.3C12.4 25.1 10 25.8 7.6 26.7ZM64.1 27C64.4 25.5 65 25.4 66 26.7 65.5 26.8 64.6 26.9 64.1 27ZM78.3 35.6L79 36 79 37.9C78.7 37.5 78.2 36.8 77.9 36.5L78.3 35.6ZM0 45.3C1.4 46.1 1.6 47.2 0.7 48.5L0 48.1 0 45.3ZM78.4 48.6C77.4 47.2 77.6 46.2 79 45.3L79 48.1 78.4 48.6ZM70.9 57.9C73.9 55.6 76.3 52.5 78.1 49.1 76.6 52.7 74.4 56.1 70.9 57.9ZM10.6 59.3C11.9 58.4 13 58.6 13.8 60L11.1 60 10.6 59.3Z"/>
	<path d="M34.7 0L43.1 0C43.9 1.4 45 1.6 46.3 0.7 56.5 3.7 63.3 13.5 64.2 23.9 70.6 25.1 76.3 29.3 78.3 35.6L77.9 36.5C78.2 36.8 78.7 37.5 79 37.9L79 45.3C77.6 46.2 77.4 47.2 78.4 48.6L78.1 49.1C76.3 52.5 73.9 55.6 70.9 57.9 69.2 58.7 67.4 59.4 65.7 60L67.4 60 13.8 60C13 58.6 11.9 58.4 10.6 59.3 6 57.2 2.5 53.3 0.7 48.5 1.6 47.2 1.4 46.1 0 45.3L0 39C0.8 34.1 3.4 29.4 7.6 26.7 10 25.8 12.4 25.1 14.8 24.3L14.9 23.6C15 21.4 15 19.3 15.1 17.1 15.2 16.5 15.5 15.3 15.7 14.7 18 10.5 22.1 7.1 27.1 7.2 34.4 6.3 41.7 12.6 41.5 20 41.5 28.2 41.5 36.5 41.5 44.7 44.3 41.9 47.1 39.3 50.2 36.8 50.4 37.3 50.9 38.4 51.1 38.9 47.7 41.9 44.7 45.5 40.9 48 38.9 48 37.6 46 36.1 44.9 33.7 42.4 30.1 40.4 29.9 36.6 33.5 38.8 36.5 41.8 39.4 44.7 39.3 37.2 39.5 29.6 39.4 22 39.4 18.7 38.6 15.3 36.1 12.9 31.9 8.2 23.4 8.4 19.4 13.4 17.1 16.3 17.2 20.2 16.9 23.8 18.6 24.2 20.4 24.7 21.8 25.9 17.2 26.6 12 26.2 8.1 29.2 0.1 35.3 0 49.6 8.6 55.4 12.2 57.9 16.8 58 21 58.1 33.7 58 46.4 58.1 59 58 63.1 58 67.6 57.6 70.9 54.9 77.9 49.6 78.8 38.4 73.4 31.6 71.6 29.2 68.7 27.9 66 26.7 65 25.4 64.4 25.5 64.1 27 64.1 27.8 64 29.3 64 30.1 63.5 30.1 62.6 30.1 62.1 30.1 62.1 21.8 60.3 12.8 53.7 7.3 47.9 2.1 39.7 1.7 32.3 2.5 32.2 2.1 32 1.2 31.9 0.8 33.1 1.7 34 1.4 34.7 0Z"/>
</svg>