<svg xmlns="http://www.w3.org/2000/svg" width="41" height="60" viewBox="0 0 41 60" version="1.1">
	<path d="M15 0L24.5 0C32.6 1.7 39.3 8.1 41 16.2L41 24.9C40 30.1 36.5 34.1 32.8 37.7 30.5 39.6 30.3 42.7 29.1 45.3 25.3 44.9 21.1 44.5 18 42.2 20.5 39.6 24.5 42.6 27.6 42.8 28.1 36.5 34.9 33.8 37.2 28.3 39.8 22.6 39.3 15.4 35.7 10.2 32.7 5.7 27.6 2.8 22.2 2.3 14.7 1.5 7 5.9 3.9 12.8 0.9 19.1 1.7 27.2 6.5 32.4 9.9 35.8 14.1 39.4 13.3 44.8 18.5 46 23.8 46.8 28.9 48.4 30.4 51.9 24.9 49.8 23.1 49.5 19.3 48.4 15.1 48.2 11.5 46.4 10.4 44 11.3 40.8 9.1 38.8 5.3 34.8 1.1 30.7 0 25L0 16.4C1.6 8.4 8.2 2.1 16.1 0L15 0ZM11.8 49.7C17.5 50.4 23.2 51.9 28.8 53.5 28.9 54 29.1 55 29.3 55.5 23.5 55 17.8 53.5 12.2 51.9 12.1 51.3 11.9 50.2 11.8 49.7ZM12.8 54.9C16.8 55.7 20.9 56.5 24.8 57.5 26.3 57.6 27 59 27.9 60L25.1 60C21.1 59.2 17 58.6 13.2 57.2 13.1 56.6 12.9 55.5 12.8 54.9Z"/>
</svg>