<svg xmlns="http://www.w3.org/2000/svg" width="73" height="60" viewBox="0 0 73 60" version="1.1">
	<path d="M0.4 0L72.5 0C72.7 0.1 72.9 0.3 73 0.3L73 45.9C71.5 46.9 69.7 47.1 68 47.1 57.9 47 47.7 47 37.6 47 37.6 48.2 37.6 49.5 37.7 50.7 37.1 50.7 35.9 50.7 35.3 50.7 35.4 49.5 35.4 48.2 35.4 47 25.9 47 16.5 47 7 47 4.6 47.1 2.3 47.1 0 46.3L0 0.4C0.1 0.3 0.3 0.1 0.4 0M2 5C2.1 18 1.9 31 2.1 44 2.3 44.2 2.8 44.6 3 44.8 24 45.1 45 44.8 66 45 67.7 45 69.4 44.9 71.1 44.3 70.9 30.5 71.2 16.7 70.9 2.9 70.1 1.4 68.3 2.2 67 2 45.9 2 24.9 2 3.9 2 2.1 1.6 1.8 3.7 2 5ZM5.4 5.5C26.1 5.4 46.8 5.4 67.5 5.5 67.6 17.5 67.6 29.4 67.5 41.3 46.9 41.4 26.2 41.4 5.5 41.4 5.4 29.4 5.5 17.5 5.4 5.5M7.6 7.8C7.7 18.2 7.7 28.7 7.6 39.1 26.9 39.2 46.1 39.2 65.4 39.1 65.3 28.7 65.3 18.2 65.4 7.8 46.1 7.7 26.9 7.7 7.6 7.8ZM22.3 60C22.2 57.4 21.6 53.4 24.9 52.5 32.6 52.2 40.4 52.2 48.1 52.5 51.3 53.4 50.8 57.4 50.8 60L22.3 60M24.2 58C32.4 58 40.6 58 48.8 58 48.3 56.6 48 54.3 46 54.6 39.6 54.5 33.3 54.5 27 54.6 24.9 54.3 24.6 56.6 24.2 58Z"/>
</svg>