<svg xmlns="http://www.w3.org/2000/svg" width="72" height="60" viewBox="0 0 72 60" version="1.1">
	<path d="M24.2 0L48.3 0C49.4 3 49.2 6.3 49.2 9.5 48.7 9.4 47.6 9.4 47.1 9.3 47.2 7 47.2 4.6 47.2 2.2 39.7 1.8 32.3 1.8 24.8 2.2 24.8 4.6 24.9 7 24.9 9.3 24.4 9.4 23.4 9.4 22.9 9.5 22.9 6.9 22.9 4.3 22.8 1.7 23.2 1.3 23.8 0.4 24.2 0ZM0 13.9C4.6 12.6 9.3 13.1 14 13.1 31 13.1 48 13.1 65 13 67.4 13 69.7 13.3 72 13.8L72 26.8C65.3 33.2 55.9 35.5 47 36.9 34.8 38.6 22.2 37.5 10.6 33.2 6.7 31.8 3.1 29.7 0 26.8L0 13.9M2.6 15.1C2.3 18.6 2 22.2 2.5 25.6 4.6 28.4 8.1 29.6 11.2 30.9 27.6 37 46.3 36.9 62.6 30.3 65.1 29.2 67.8 27.9 69.5 25.6 69.9 22.3 69.9 18.9 69.5 15.6 68.3 14.6 66.4 15.2 64.9 15 44.2 15.1 23.4 14.9 2.6 15.1ZM0 33.7C0.6 33.7 1.7 33.7 2.3 33.7 2.4 41.8 2 50 2.5 58.1 24.9 57.9 47.3 58.4 69.6 57.8 69.8 49.8 69.7 41.8 69.7 33.8 70.2 33.8 71.4 33.7 72 33.7L72 59.1 71.2 58.8C71 59.1 70.4 59.7 70.2 60L1.8 60C1.6 59.7 1.1 59.1 0.8 58.8L0 59.1 0 33.7ZM29.5 43.1C29.5 42.4 29.5 41.6 29.5 40.8 34 40.9 38.5 40.7 43 41.3 42.8 41.8 42.5 42.7 42.3 43.1 38 43.1 33.8 43.2 29.5 43.1Z"/>
	<path d="M0 59.1L0.8 58.8C1.1 59.1 1.6 59.7 1.8 60L0 60 0 59.1ZM70.2 60C70.4 59.7 71 59.1 71.2 58.8L72 59.1 72 60 70.2 60Z"/>
</svg>